# xmcd
#
# Track frame offsets:
#	150
#	14190
#	29408
#	46398
#	62700
#	78993
#	93250
#	106988
#	121225
#	144440
#	158805
#	179863
#	193910
#	208723
#
# Disc length: 2999 seconds
#
# Revision: 2
# Processed by: cddbd v1.4PL0 Copyright (c) Steve Scherf et al.
# Submitted via: audiograbber 1.80
#
DISCID=c90bb50e
DTITLE=Kamelot - Zachrante kone
DYEAR=1900
DGENRE=
TTITLE0=Zpatky par let
TTITLE1=Cikani
TTITLE2=Pristav
TTITLE3=Amulet
TTITLE4=Cas rozchodu
TTITLE5=Dik pane Foglar
TTITLE6=Zachrante kone
TTITLE7=Psano na brezove kure
TTITLE8=Bella a Sebastian
TTITLE9=Adler
TTITLE10=Zatmeni
TTITLE11=Vernak
TTITLE12=Setri si slzy z oci
TTITLE13=Velka voda
EXTD=
EXTT0=
EXTT1=
EXTT2=
EXTT3=
EXTT4=
EXTT5=
EXTT6=
EXTT7=
EXTT8=
EXTT9=
EXTT10=
EXTT11=
EXTT12=
EXTT13=
PLAYORDER=
